<svg xmlns="http://www.w3.org/2000/svg" style="display:none;">
  <symbol id="icon-logo" viewBox="0 0 32 32">
<path fill="#fde8c2" style="fill: var(--color4, #fde8c2)" d="M27.6 11.2c0-0.44-0.36-0.8-0.8-0.8h-21.6c-0.44 0-0.8 0.36-0.8 0.8v4.8h23.2v-4.8z"></path>
<path fill="#231c1c" style="fill: var(--color5, #231c1c)" d="M27.6 16.4h-23.2c-0.24 0-0.4-0.16-0.4-0.4v-4.8c0-0.68 0.52-1.2 1.2-1.2h21.6c0.68 0 1.2 0.52 1.2 1.2v4.8c0 0.24-0.16 0.4-0.4 0.4zM4.8 15.6h22.4v-4.4c0-0.24-0.16-0.4-0.4-0.4h-21.6c-0.24 0-0.4 0.16-0.4 0.4v4.4z"></path>
<path fill="#6fb0be" style="fill: var(--color6, #6fb0be)" d="M4.4 27.2c0 0.44 0.36 0.8 0.8 0.8h21.6c0.44 0 0.8-0.36 0.8-0.8v-5.2h-23.2v5.2z"></path>
<path fill="#231c1c" style="fill: var(--color5, #231c1c)" d="M26.8 28.4h-21.6c-0.68 0-1.2-0.52-1.2-1.2v-5.2c0-0.24 0.16-0.4 0.4-0.4h23.2c0.24 0 0.4 0.16 0.4 0.4v5.2c0 0.68-0.52 1.2-1.2 1.2zM4.8 22.4v4.8c0 0.24 0.16 0.4 0.4 0.4h21.6c0.24 0 0.4-0.16 0.4-0.4v-4.8h-22.4z"></path>
<path fill="#e1e0a6" style="fill: var(--color7, #e1e0a6)" d="M4.4 16h23.2v6h-23.2z"></path>
<path fill="#231c1c" style="fill: var(--color5, #231c1c)" d="M27.6 22.4h-23.2c-0.24 0-0.4-0.16-0.4-0.4v-6c0-0.24 0.16-0.4 0.4-0.4h23.2c0.24 0 0.4 0.16 0.4 0.4v6c0 0.24-0.16 0.4-0.4 0.4zM4.8 21.6h22.4v-5.2h-22.4v5.2z"></path>
<path fill="#f29b54" style="fill: var(--color8, #f29b54)" d="M27.6 10.8h-23.2v5.2h2.8v1.6c0 0.44 0.36 0.8 0.8 0.8h0.4c0.44 0 0.8-0.36 0.8-0.8v-1.6h3.6v6c0 0.44 0.36 0.8 0.8 0.8h0.4c0.44 0 0.8-0.36 0.8-0.8v-6h2.8v2.8c0 0.44 0.36 0.8 0.8 0.8h0.4c0.44 0 0.8-0.36 0.8-0.8v-2.8h3.6v4.4c0 0.44 0.36 0.8 0.8 0.8h0.4c0.44 0 0.8-0.36 0.8-0.8v-4.4h2.4v-5.2z"></path>
<path fill="#231c1c" style="fill: var(--color5, #231c1c)" d="M14 23.2h-0.4c-0.68 0-1.2-0.52-1.2-1.2v-5.6h-2.8v1.2c0 0.68-0.52 1.2-1.2 1.2h-0.4c-0.68 0-1.2-0.52-1.2-1.2v-1.2h-2.4c-0.24 0-0.4-0.16-0.4-0.4v-5.2c0-0.24 0.16-0.4 0.4-0.4h23.2c0.24 0 0.4 0.16 0.4 0.4v5.2c0 0.24-0.16 0.4-0.4 0.4h-2v4c0 0.68-0.52 1.2-1.2 1.2h-0.4c-0.68 0-1.2-0.52-1.2-1.2v-4h-2.8v2.4c0 0.68-0.52 1.2-1.2 1.2h-0.4c-0.68 0-1.2-0.52-1.2-1.2v-2.4h-2v5.6c0 0.68-0.52 1.2-1.2 1.2zM9.2 15.6h3.6c0.24 0 0.4 0.16 0.4 0.4v6c0 0.24 0.16 0.4 0.4 0.4h0.4c0.24 0 0.4-0.16 0.4-0.4v-6c0-0.24 0.16-0.4 0.4-0.4h2.8c0.24 0 0.4 0.16 0.4 0.4v2.8c0 0.24 0.16 0.4 0.4 0.4h0.4c0.24 0 0.4-0.16 0.4-0.4v-2.8c0-0.24 0.16-0.4 0.4-0.4h3.6c0.24 0 0.4 0.16 0.4 0.4v4.4c0 0.24 0.16 0.4 0.4 0.4h0.4c0.24 0 0.4-0.16 0.4-0.4v-4.4c0-0.24 0.16-0.4 0.4-0.4h2v-4.4h-22.4v4.4h2.4c0.24 0 0.4 0.16 0.4 0.4v1.6c0 0.24 0.16 0.4 0.4 0.4h0.4c0.24 0 0.4-0.16 0.4-0.4v-1.6c0-0.24 0.16-0.4 0.4-0.4z"></path>
<path fill="#231c1c" style="fill: var(--color5, #231c1c)" d="M9.6 7.6h0.8v3.2h-0.8z"></path>
<path fill="#fac546" style="fill: var(--color9, #fac546)" d="M11.2 6.4c0 0.68-0.52 1.2-1.2 1.2s-1.2-0.52-1.2-1.2 0.52-2.4 1.2-2.4 1.2 1.72 1.2 2.4z"></path>
<path fill="#231c1c" style="fill: var(--color5, #231c1c)" d="M10 8c-0.88 0-1.6-0.72-1.6-1.6 0-0.56 0.48-2.8 1.6-2.8s1.6 2.24 1.6 2.8c0 0.88-0.72 1.6-1.6 1.6zM10 4.4c-0.28 0.040-0.8 1.32-0.8 2 0 0.44 0.36 0.8 0.8 0.8s0.8-0.36 0.8-0.8c0-0.68-0.52-1.96-0.8-2zM15.6 7.6h0.8v3.2h-0.8z"></path>
<path fill="#fac546" style="fill: var(--color9, #fac546)" d="M17.2 6.4c0 0.68-0.52 1.2-1.2 1.2s-1.2-0.52-1.2-1.2 0.52-2.4 1.2-2.4 1.2 1.72 1.2 2.4z"></path>
<path fill="#231c1c" style="fill: var(--color5, #231c1c)" d="M16 8c-0.88 0-1.6-0.72-1.6-1.6 0-0.56 0.48-2.8 1.6-2.8s1.6 2.24 1.6 2.8c0 0.88-0.72 1.6-1.6 1.6zM16 4.4c-0.28 0.040-0.8 1.32-0.8 2 0 0.44 0.36 0.8 0.8 0.8s0.8-0.36 0.8-0.8c0-0.68-0.52-1.96-0.8-2zM21.6 7.6h0.8v3.2h-0.8z"></path>
<path fill="#fac546" style="fill: var(--color9, #fac546)" d="M23.2 6.4c0 0.68-0.52 1.2-1.2 1.2s-1.2-0.52-1.2-1.2 0.52-2.4 1.2-2.4 1.2 1.72 1.2 2.4z"></path>
<path fill="#231c1c" style="fill: var(--color5, #231c1c)" d="M22 8c-0.88 0-1.6-0.72-1.6-1.6 0-0.56 0.48-2.8 1.6-2.8s1.6 2.24 1.6 2.8c0 0.88-0.72 1.6-1.6 1.6zM22 4.4c-0.28 0.040-0.8 1.32-0.8 2 0 0.44 0.36 0.8 0.8 0.8s0.8-0.36 0.8-0.8c0-0.68-0.52-1.96-0.8-2z"></path>
</symbol>

<symbol id="icon-surprise" viewBox="0 0 32 32">
<path fill="#84dbff" style="fill: var(--color1, #84dbff)" d="M32 16c0 8.837-7.163 16-16 16s-16-7.163-16-16c0-8.837 7.163-16 16-16s16 7.163 16 16z"></path>
<path fill="#324a5e" style="fill: var(--color2, #324a5e)" d="M24.152 6.857h-16.305c-0.533 0-0.99 0.432-0.99 0.99v16.305c0 0.533 0.432 0.99 0.99 0.99h16.305c0.533 0 0.99-0.432 0.99-0.99v-16.305c0-0.559-0.432-0.99-0.99-0.99z"></path>
<path fill="#ffd05b" style="fill: var(--color3, #ffd05b)" d="M20.698 15.035c-0.356-0.66-1.041-1.117-1.854-1.117-0.254 0-0.533 0.051-0.813 0.127v-0.102c0-0.787-0.432-1.448-1.067-1.829v-5.257h-1.93v5.181c-0.711 0.33-1.194 1.067-1.194 1.879v0.076c-0.229-0.051-0.457-0.102-0.686-0.102-0.813 0-1.498 0.457-1.854 1.117h-4.444v1.93h4.444c0.356 0.66 1.041 1.117 1.854 1.117 0.203 0 0.432-0.025 0.686-0.102v0.076c0 0.838 0.483 1.549 1.194 1.879v5.232h1.93v-5.232c0.635-0.356 1.067-1.041 1.067-1.829v-0.102c0.279 0.076 0.559 0.127 0.813 0.127 0.813 0 1.498-0.457 1.854-1.117h4.444v-1.93h-4.444v-0.025zM13.156 16.736c-0.406 0-0.736-0.33-0.736-0.736s0.33-0.736 0.736-0.736c0.61 0 1.397 0.533 1.397 0.736s-0.787 0.736-1.397 0.736zM16.254 15.035c-0.127 0.178-0.254 0.279-0.33 0.279s-0.203-0.102-0.33-0.279c-0.203-0.279-0.406-0.736-0.406-1.117 0-0.406 0.33-0.736 0.736-0.736s0.737 0.33 0.737 0.736c0 0.381-0.203 0.838-0.406 1.117zM16.66 18.083c0 0.406-0.33 0.736-0.736 0.736s-0.736-0.33-0.736-0.736c0-0.381 0.203-0.838 0.406-1.117 0.127-0.178 0.254-0.279 0.33-0.279s0.203 0.102 0.33 0.279c0.203 0.279 0.406 0.736 0.406 1.117zM18.844 16.736c-0.61 0-1.397-0.533-1.397-0.736s0.787-0.736 1.397-0.736c0.406 0 0.736 0.33 0.736 0.736s-0.33 0.736-0.736 0.736z"></path>
</symbol>

  <symbol id="icon-menu" viewBox="0 0 36 32">
<path d="M1.199 4.002c0-0.637 0.253-1.247 0.703-1.697s1.061-0.703 1.697-0.703h28.8c0.637 0 1.247 0.253 1.697 0.703s0.703 1.061 0.703 1.697-0.253 1.247-0.703 1.697c-0.45 0.45-1.060 0.703-1.697 0.703h-28.8c-0.637 0-1.247-0.253-1.697-0.703s-0.703-1.061-0.703-1.697z"></path>
<path d="M1.199 16.002c0-0.637 0.253-1.247 0.703-1.697s1.061-0.703 1.697-0.703h28.8c0.637 0 1.247 0.253 1.697 0.703s0.703 1.061 0.703 1.697-0.253 1.247-0.703 1.697c-0.45 0.45-1.060 0.703-1.697 0.703h-28.8c-0.637 0-1.247-0.253-1.697-0.703s-0.703-1.061-0.703-1.697z"></path>
<path d="M1.199 28.002c0-0.637 0.253-1.247 0.703-1.697s1.061-0.703 1.697-0.703h28.8c0.637 0 1.247 0.253 1.697 0.703s0.703 1.060 0.703 1.697c0 0.636-0.253 1.247-0.703 1.697s-1.060 0.703-1.697 0.703h-28.8c-0.637 0-1.247-0.253-1.697-0.703s-0.703-1.061-0.703-1.697z"></path>
</symbol>

<symbol id="icon-Vector" viewBox="0 0 32 32">
<path d="M32 3.223l-3.223-3.223-12.777 12.777-12.777-12.777-3.223 3.223 12.777 12.777-12.777 12.777 3.223 3.223 12.777-12.777 12.777 12.777 3.223-3.223-12.777-12.777 12.777-12.777z"></path>
</symbol>

</svg>